<svg xmlns="http://www.w3.org/2000/svg" xmlns:xlink="http://www.w3.org/1999/xlink" version="1.1" x="0px" y="0px" viewBox="0 0 512 640" style="enable-background:new 0 0 512 512;" xml:space="preserve"><g><g><g><path d="M476,486H36c-5.523,0-10-4.478-10-10V36c0-5.523,4.477-10,10-10h440c5.522,0,10,4.477,10,10v440     C486,481.522,481.522,486,476,486z M46,466h420V46H46V466z"/></g><g><path d="M426,486H86c-5.523,0-10-4.478-10-10V36c0-5.523,4.477-10,10-10h340c5.522,0,10,4.477,10,10v440     C436,481.522,431.522,486,426,486z M96,466h320V46H96V466z"/></g><g><path d="M273.9,406.811h-45.09c-2.877,0-5.614-1.238-7.513-3.399s-2.774-5.034-2.404-7.887l7.494-57.769     c-16.766-1.667-33.6-5.049-50.186-10.087c-3.574-1.086-6.246-4.074-6.926-7.748c-0.681-3.674,0.744-7.42,3.693-9.714     c2.013-1.565,4.035-3.176,6.042-4.791l-59.276-13.886c-4.228-0.99-7.334-4.597-7.686-8.925c-0.353-4.328,2.129-8.39,6.141-10.051     l23.238-9.622l-30.854-38.951c-2.55-3.22-2.872-7.672-0.813-11.225c2.061-3.553,6.082-5.486,10.146-4.872l49.12,7.422     l-3.427-24.707c-0.598-4.313,1.664-8.518,5.593-10.396c3.928-1.879,8.621-0.998,11.603,2.177l18.133,19.311l-12.199-57.218     c-0.874-4.101,0.902-8.312,4.45-10.546c3.548-2.234,8.113-2.019,11.434,0.54l19.716,15.193l18.38-46.169     c1.515-3.805,5.196-6.301,9.291-6.301c0.007,0,0.013,0,0.021,0c4.102,0.008,7.783,2.521,9.285,6.339l18.155,46.153l19.96-15.242     c3.331-2.544,7.895-2.74,11.43-0.494c3.538,2.247,5.3,6.46,4.414,10.555l-12.334,57.044l17.995-19.165     c2.972-3.165,7.647-4.05,11.57-2.192c3.924,1.858,6.2,6.036,5.635,10.34l-3.258,24.793l49.22-7.438     c4.068-0.613,8.096,1.324,10.154,4.887c2.057,3.563,1.723,8.021-0.843,11.237l-31.066,38.942l23.194,9.604     c4.011,1.661,6.492,5.72,6.142,10.047s-3.453,7.934-7.68,8.927l-57.216,13.45l7.444,5.203c3.157,2.207,4.766,6.031,4.136,9.832     c-0.63,3.8-3.387,6.9-7.088,7.971c-17.88,5.17-36.157,8.589-54.478,10.196l7.033,57.414c0.349,2.843-0.539,5.698-2.438,7.843     C279.491,405.583,276.765,406.811,273.9,406.811z M240.191,386.811h22.409l-6.942-56.669c-0.338-2.758,0.487-5.532,2.277-7.657     c1.789-2.126,4.383-3.41,7.158-3.547c13.232-0.649,26.484-2.322,39.601-4.994l-7.704-5.385c-3.232-2.26-4.836-6.208-4.093-10.081     s3.693-6.947,7.533-7.85l48.778-11.467l-6.804-2.817c-2.903-1.202-5.072-3.699-5.857-6.742c-0.784-3.042-0.093-6.277,1.866-8.733     l23.453-29.398l-37.146,5.613c-3.103,0.469-6.253-0.548-8.496-2.749s-3.322-5.327-2.913-8.442l0.945-7.193l-21.433,22.825     c-3.076,3.275-7.959,4.099-11.938,2.009c-3.979-2.089-6.075-6.575-5.126-10.967l14.217-65.75l-8.904,6.8     c-2.492,1.903-5.734,2.527-8.755,1.685c-3.021-0.843-5.473-3.054-6.62-5.972l-13.754-34.963l-13.935,35.001     c-1.16,2.915-3.621,5.116-6.646,5.945c-3.027,0.828-6.266,0.191-8.749-1.723l-8.649-6.666l14.002,65.67     c0.936,4.39-1.168,8.865-5.145,10.946c-3.977,2.08-8.854,1.257-11.926-2.016l-21.169-22.543l0.949,6.841     c0.433,3.125-0.634,6.271-2.878,8.488c-2.243,2.217-5.401,3.247-8.521,2.774l-37.272-5.632l23.324,29.445     c1.947,2.458,2.629,5.688,1.84,8.723c-0.788,3.036-2.955,5.525-5.853,6.726l-6.766,2.801l49.01,11.481     c3.752,0.879,6.664,3.834,7.488,7.599c0.824,3.764-0.588,7.666-3.629,10.031c-2.186,1.7-4.383,3.453-6.56,5.207     c12.443,2.735,24.945,4.464,37.354,5.156c2.775,0.155,5.36,1.458,7.136,3.596c1.775,2.139,2.581,4.919,2.224,7.675     L240.191,386.811z"/></g></g></g><text x="0" y="527" fill="#000000" font-size="5px" font-weight="bold" font-family="'Helvetica Neue', Helvetica, Arial-Unicode, Arial, Sans-serif">Created by Flatart</text><text x="0" y="532" fill="#000000" font-size="5px" font-weight="bold" font-family="'Helvetica Neue', Helvetica, Arial-Unicode, Arial, Sans-serif">from the Noun Project</text></svg>